HIERARCHY
ROOT mixamorig_Hips
{
	OFFSET 0.003029 2.391111 -0.063197
	CHANNELS 6 Xposition Yposition Zposition Xrotation Yrotation Zrotation
	JOINT mixamorig_Spine
	{
		OFFSET 0.000037 0.218743 -0.014868
		CHANNELS 6 Xposition Yposition Zposition Xrotation Yrotation Zrotation
		JOINT mixamorig_Spine1
		{
			OFFSET 0.000043 0.255199 -0.017346
			CHANNELS 6 Xposition Yposition Zposition Xrotation Yrotation Zrotation
			JOINT mixamorig_Spine2
			{
				OFFSET 0.000049 0.291657 -0.019824
				CHANNELS 6 Xposition Yposition Zposition Xrotation Yrotation Zrotation
				JOINT mixamorig_Neck
				{
					OFFSET 0.000054 0.328114 -0.022301
					CHANNELS 6 Xposition Yposition Zposition Xrotation Yrotation Zrotation
					JOINT mixamorig_Head
					{
						OFFSET 0.000000 0.149230 0.067663
						CHANNELS 6 Xposition Yposition Zposition Xrotation Yrotation Zrotation
						JOINT mixamorig_HeadTop_End
						{
							OFFSET 0.000000 0.424075 0.192282
							CHANNELS 6 Xposition Yposition Zposition Xrotation Yrotation Zrotation
							End Site
							{
								OFFSET 0.000000 0.424075 0.192282
							}
						}
					}
				}
				JOINT mixamorig_LeftShoulder
				{
					OFFSET 0.144465 0.283077 -0.022691
					CHANNELS 6 Xposition Yposition Zposition Xrotation Yrotation Zrotation
					JOINT mixamorig_LeftArm
					{
						OFFSET 0.288824 -0.090073 -0.000785
						CHANNELS 6 Xposition Yposition Zposition Xrotation Yrotation Zrotation
						JOINT mixamorig_LeftForeArm
						{
							OFFSET 0.404976 -0.248276 0.009414
							CHANNELS 6 Xposition Yposition Zposition Xrotation Yrotation Zrotation
							JOINT mixamorig_LeftHand
							{
								OFFSET 0.460136 -0.238232 0.283751
								CHANNELS 6 Xposition Yposition Zposition Xrotation Yrotation Zrotation
								JOINT mixamorig_LeftHandIndex1
								{
									OFFSET 0.076425 -0.088070 0.114620
									CHANNELS 6 Xposition Yposition Zposition Xrotation Yrotation Zrotation
									JOINT mixamorig_LeftHandIndex2
									{
										OFFSET 0.037038 -0.042861 0.009225
										CHANNELS 6 Xposition Yposition Zposition Xrotation Yrotation Zrotation
										JOINT mixamorig_LeftHandIndex3
										{
											OFFSET 0.050284 -0.021473 0.042193
											CHANNELS 6 Xposition Yposition Zposition Xrotation Yrotation Zrotation
											JOINT mixamorig_LeftHandIndex4
											{
												OFFSET 0.021095 -0.014427 0.015497
												CHANNELS 6 Xposition Yposition Zposition Xrotation Yrotation Zrotation
												End Site
												{
													OFFSET 0.021095 -0.014427 0.015497
												}
											}
										}
									}
								}
							}
						}
					}
				}
				JOINT mixamorig_RightShoulder
				{
					OFFSET -0.143674 0.284997 -0.021910
					CHANNELS 6 Xposition Yposition Zposition Xrotation Yrotation Zrotation
					JOINT mixamorig_RightArm
					{
						OFFSET -0.287463 -0.086233 0.000780
						CHANNELS 6 Xposition Yposition Zposition Xrotation Yrotation Zrotation
						JOINT mixamorig_RightForeArm
						{
							OFFSET -0.399589 -0.246765 0.002710
							CHANNELS 6 Xposition Yposition Zposition Xrotation Yrotation Zrotation
							JOINT mixamorig_RightHand
							{
								OFFSET -0.467399 -0.241373 0.281228
								CHANNELS 6 Xposition Yposition Zposition Xrotation Yrotation Zrotation
								JOINT mixamorig_RightHandIndex1
								{
									OFFSET -0.108032 -0.094182 0.125162
									CHANNELS 6 Xposition Yposition Zposition Xrotation Yrotation Zrotation
									JOINT mixamorig_RightHandIndex2
									{
										OFFSET -0.024173 -0.047998 0.027741
										CHANNELS 6 Xposition Yposition Zposition Xrotation Yrotation Zrotation
										JOINT mixamorig_RightHandIndex3
										{
											OFFSET -0.029763 -0.024956 0.035314
											CHANNELS 6 Xposition Yposition Zposition Xrotation Yrotation Zrotation
											JOINT mixamorig_RightHandIndex4
											{
												OFFSET -0.019419 -0.013743 0.006098
												CHANNELS 6 Xposition Yposition Zposition Xrotation Yrotation Zrotation
												End Site
												{
													OFFSET -0.019419 -0.013743 0.006098
												}
											}
										}
									}
								}
							}
						}
					}
				}
			}
		}
	}
	JOINT mixamorig_LeftUpLeg
	{
		OFFSET 0.189034 -0.122014 -0.005415
		CHANNELS 6 Xposition Yposition Zposition Xrotation Yrotation Zrotation
		JOINT mixamorig_LeftLeg
		{
			OFFSET 0.151311 -1.007878 0.040988
			CHANNELS 6 Xposition Yposition Zposition Xrotation Yrotation Zrotation
			JOINT mixamorig_LeftFoot
			{
				OFFSET 0.114341 -0.988243 -0.048910
				CHANNELS 6 Xposition Yposition Zposition Xrotation Yrotation Zrotation
				JOINT mixamorig_LeftToeBase
				{
					OFFSET 0.103477 -0.279232 0.323868
					CHANNELS 6 Xposition Yposition Zposition Xrotation Yrotation Zrotation
					JOINT mixamorig_LeftToe_End
					{
						OFFSET 0.051617 -0.003830 0.157067
						CHANNELS 6 Xposition Yposition Zposition Xrotation Yrotation Zrotation
						End Site
						{
							OFFSET 0.051617 -0.003830 0.157067
						}
					}
				}
			}
		}
	}
	JOINT mixamorig_RightUpLeg
	{
		OFFSET -0.200944 -0.121034 -0.009075
		CHANNELS 6 Xposition Yposition Zposition Xrotation Yrotation Zrotation
		JOINT mixamorig_RightLeg
		{
			OFFSET -0.144783 -1.006898 0.044265
			CHANNELS 6 Xposition Yposition Zposition Xrotation Yrotation Zrotation
			JOINT mixamorig_RightFoot
			{
				OFFSET -0.115121 -0.980906 -0.055156
				CHANNELS 6 Xposition Yposition Zposition Xrotation Yrotation Zrotation
				JOINT mixamorig_RightToeBase
				{
					OFFSET -0.113671 -0.284172 0.327430
					CHANNELS 6 Xposition Yposition Zposition Xrotation Yrotation Zrotation
					JOINT mixamorig_RightToe_End
					{
						OFFSET -0.056400 -0.006888 0.156987
						CHANNELS 6 Xposition Yposition Zposition Xrotation Yrotation Zrotation
						End Site
						{
							OFFSET -0.056400 -0.006888 0.156987
						}
					}
				}
			}
		}
	}
}
MOTION
Frames: 6
Frame Time: 0.041667
0.036262 2.376844 0.274636 0.790478 -1.917304 -6.022806 0.000036 0.218743 -0.014868 2.594925 -5.275119 -0.833727 0.000043 0.255199 -0.017346 2.005868 -0.780703 0.416502 0.000049 0.291657 -0.019824 1.993700 -0.772411 0.397300 0.000055 0.328114 -0.022302 1.528571 -4.955633 10.351986 0.000000 0.149230 0.067663 -4.431662 -12.553768 1.590452 0.000000 0.424074 0.192282 -0.000000 0.000000 -0.000000 0.144467 0.283077 -0.022693 3.190939 -24.601571 7.249572 0.288825 -0.090074 -0.000782 -4.023201 -54.987804 17.707057 0.404975 -0.248275 0.009413 -52.484755 -55.188055 -30.323776 0.460135 -0.238231 0.283749 12.557350 -2.973291 11.337526 0.076425 -0.088071 0.114620 -9.960870 -38.595883 -69.348249 0.037038 -0.042861 0.009225 37.509848 -35.247478 -92.005674 0.050284 -0.021474 0.042193 25.426177 -39.447628 -66.232980 0.021095 -0.014427 0.015497 0.000001 0.000003 -0.000002 -0.143675 0.284997 -0.021912 -22.943097 4.493354 -16.813125 -0.287461 -0.086234 0.000782 -8.792121 22.782569 -29.799951 -0.399593 -0.246767 0.002709 6.769415 -10.912822 2.522603 -0.467398 -0.241371 0.281226 -41.232233 -23.161986 -14.459724 -0.108030 -0.094182 0.125164 6.840367 20.633590 20.028194 -0.024173 -0.047998 0.027741 34.295541 53.569747 72.723278 -0.029763 -0.024956 0.035315 -8.217587 43.420961 96.231491 -0.019419 -0.013743 0.006098 0.000003 0.000001 -0.000001 0.189035 -0.122014 -0.005415 -19.565789 12.013036 13.301779 0.151311 -1.007878 0.040987 32.808937 9.960294 -0.984334 0.114340 -0.988243 -0.048909 -7.295996 -0.138768 2.800997 0.103477 -0.279231 0.323867 -2.417410 -0.000032 0.000003 0.051617 -0.003830 0.157066 0.000001 0.000001 -0.000000 -0.200944 -0.121034 -0.009074 -30.476652 -7.646779 -12.804107 -0.144784 -1.006899 0.044264 45.482185 -13.619013 0.668702 -0.115121 -0.980906 -0.055157 21.111591 -14.811207 11.708068 -0.113671 -0.284172 0.327431 1.513857 0.000055 -0.000005 -0.056400 -0.006888 0.156987 -0.000000 -0.000000 0.000001 
-0.041275 2.373396 0.296604 1.789721 0.878073 -5.043168 0.000036 0.218743 -0.014868 1.011731 -5.533517 -2.720948 0.000043 0.255199 -0.017346 1.118967 -0.844373 0.290483 0.000049 0.291657 -0.019824 1.106380 -0.841950 0.280875 0.000055 0.328114 -0.022302 1.400898 -5.179739 11.857003 -0.000000 0.149230 0.067663 -0.903268 -11.363837 0.628061 0.000000 0.424075 0.192282 0.000001 0.000002 -0.000000 0.144467 0.283077 -0.022693 2.438429 -24.878793 4.234751 0.288825 -0.090074 -0.000782 4.280942 -52.199659 24.034464 0.404975 -0.248275 0.009413 -55.773501 -56.288139 -33.025529 0.460135 -0.238231 0.283749 10.110569 -0.816641 6.279617 0.076425 -0.088071 0.114620 -9.960868 -38.595890 -69.348243 0.037038 -0.042861 0.009225 37.509848 -35.247468 -92.005640 0.050284 -0.021473 0.042193 25.426189 -39.447655 -66.232973 0.021095 -0.014427 0.015497 0.000003 0.000000 -0.000003 -0.143675 0.284997 -0.021912 -23.598903 -1.913040 -19.699109 -0.287461 -0.086234 0.000782 22.478952 30.429015 -40.237642 -0.399593 -0.246766 0.002709 11.734665 -18.984919 3.882411 -0.467397 -0.241371 0.281226 -18.464170 -5.762819 -6.261974 -0.108031 -0.094182 0.125164 6.840373 20.633597 20.028196 -0.024173 -0.047997 0.027741 34.295538 53.569747 72.723278 -0.029763 -0.024956 0.035315 -8.217582 43.420961 96.231491 -0.019419 -0.013744 0.006098 -0.000002 -0.000002 0.000000 0.189035 -0.122013 -0.005415 -19.000534 14.015090 7.298794 0.151311 -1.007878 0.040987 35.580784 8.598993 -0.944165 0.114340 -0.988243 -0.048909 -10.918349 2.234015 -0.820176 0.103477 -0.279231 0.323867 -2.975846 -0.000001 -0.000006 0.051617 -0.003830 0.157067 -0.000000 0.000002 0.000001 -0.200944 -0.121034 -0.009074 -15.997415 -4.864632 -8.166535 -0.144784 -1.006899 0.044264 21.356890 -10.763324 -0.662242 -0.115121 -0.980906 -0.055157 20.758883 -11.494372 6.546075 -0.113671 -0.284172 0.327431 -8.986732 0.041066 1.064991 -0.056400 -0.006888 0.156987 0.000001 -0.000002 0.000002 
-0.117079 2.334537 0.303402 1.874564 3.871788 -5.261724 0.000036 0.218743 -0.014868 1.040377 -5.852918 -2.026982 0.000043 0.255199 -0.017346 1.295694 -0.887413 0.552999 0.000049 0.291657 -0.019824 1.286114 -0.883489 0.538791 0.000055 0.328114 -0.022302 0.423315 -4.456593 10.384849 -0.000000 0.149230 0.067663 -1.363400 -8.818159 0.187346 0.000000 0.424075 0.192282 -0.000002 -0.000001 -0.000000 0.144467 0.283076 -0.022693 2.105791 -23.979768 2.597100 0.288825 -0.090074 -0.000782 4.130649 -49.016436 20.637572 0.404975 -0.248274 0.009413 -60.065954 -57.512672 -36.601621 0.460135 -0.238231 0.283749 11.334253 -2.042437 5.726185 0.076425 -0.088071 0.114620 -9.960869 -38.595890 -69.348249 0.037038 -0.042861 0.009225 37.509855 -35.247464 -92.005660 0.050284 -0.021473 0.042193 25.426194 -39.447659 -66.232973 0.021095 -0.014427 0.015497 0.000001 0.000002 -0.000002 -0.143675 0.284997 -0.021912 -24.321527 -4.728126 -22.258968 -0.287460 -0.086234 0.000782 31.762210 20.987619 -41.285751 -0.399593 -0.246766 0.002709 -3.486355 7.090515 2.008487 -0.467397 -0.241371 0.281227 3.393875 3.430669 -20.999324 -0.108031 -0.094182 0.125164 6.840323 20.633605 20.028200 -0.024174 -0.047997 0.027741 34.295520 53.569754 72.723312 -0.029763 -0.024957 0.035315 -8.217576 43.420950 96.231457 -0.019419 -0.013743 0.006098 0.000001 0.000001 -0.000002 0.189035 -0.122013 -0.005415 -17.478720 12.334207 2.370754 0.151311 -1.007878 0.040987 35.504737 12.756941 -0.482977 0.114340 -0.988243 -0.048909 -16.941164 7.445506 1.317789 0.103477 -0.279231 0.323867 -5.174261 -0.000028 -0.000014 0.051617 -0.003830 0.157067 0.000001 0.000002 0.000001 -0.200944 -0.121034 -0.009074 -11.457347 -4.057664 -4.966722 -0.144784 -1.006899 0.044264 18.788392 -11.968743 -0.878512 -0.115121 -0.980906 -0.055157 6.699237 -12.207911 2.526232 -0.113671 -0.284172 0.327431 -14.482272 -0.005027 0.532212 -0.056400 -0.006888 0.156987 -0.000000 0.000002 -0.000000 
-0.189304 2.275507 0.279580 1.302112 6.096679 -7.028324 0.000036 0.218743 -0.014868 3.172444 -5.968300 1.156959 0.000043 0.255199 -0.017346 2.232827 -0.891921 0.804217 0.000049 0.291657 -0.019824 2.225553 -0.878245 0.777526 0.000055 0.328114 -0.022302 -0.444567 -2.844335 7.353578 -0.000000 0.149230 0.067663 -6.645948 -4.258871 -0.070456 -0.000000 0.424075 0.192282 -0.000000 -0.000001 0.000000 0.144467 0.283077 -0.022693 2.384367 -23.020157 3.490801 0.288825 -0.090074 -0.000782 -1.798499 -45.020977 12.145291 0.404975 -0.248275 0.009413 -62.456336 -58.100574 -38.613662 0.460135 -0.238231 0.283749 13.799306 -5.876537 8.834377 0.076425 -0.088072 0.114620 -9.960874 -38.595876 -69.348249 0.037038 -0.042861 0.009225 37.509852 -35.247461 -92.005647 0.050284 -0.021473 0.042193 25.426195 -39.447648 -66.232966 0.021094 -0.014427 0.015496 -0.000001 0.000003 -0.000002 -0.143675 0.284998 -0.021912 -24.239464 -1.744398 -21.713368 -0.287461 -0.086234 0.000782 24.705609 10.409598 -31.883227 -0.399593 -0.246767 0.002709 -22.791549 35.296461 8.990268 -0.467398 -0.241371 0.281226 9.896483 -6.503125 -33.312626 -0.108031 -0.094182 0.125164 6.840368 20.633590 20.028194 -0.024173 -0.047998 0.027741 34.295538 53.569747 72.723278 -0.029763 -0.024957 0.035315 -8.217573 43.420947 96.231457 -0.019419 -0.013743 0.006098 -0.000001 -0.000003 -0.000003 0.189035 -0.122014 -0.005415 -22.123509 6.916215 4.046281 0.151311 -1.007879 0.040987 44.328850 15.521769 -1.169808 0.114340 -0.988243 -0.048909 -20.827552 9.126826 1.745487 0.103476 -0.279231 0.323867 -8.317922 -0.000032 -0.000042 0.051617 -0.003830 0.157067 -0.000001 0.000000 0.000001 -0.200944 -0.121034 -0.009074 -6.852348 -6.775587 -1.496928 -0.144784 -1.006899 0.044264 16.983119 -9.850296 -0.880526 -0.115121 -0.980906 -0.055157 -6.794481 -13.114379 8.569294 -0.113671 -0.284172 0.327431 -7.440706 0.000026 -0.000017 -0.056400 -0.006888 0.156987 0.000000 0.000001 -0.000000 
-0.258581 2.194266 0.224492 0.715247 6.023154 -6.639918 0.000036 0.218743 -0.014868 6.511472 -5.329378 2.348505 0.000043 0.255199 -0.017346 3.116069 -0.790248 0.609069 0.000049 0.291657 -0.019824 3.107554 -0.759475 0.578245 0.000055 0.328114 -0.022302 -0.967612 -0.963769 4.393065 0.000000 0.149230 0.067663 -14.713295 1.444805 -1.217597 0.000000 0.424075 0.192282 0.000002 0.000000 -0.000000 0.144467 0.283076 -0.022693 3.144632 -22.575334 6.760231 0.288825 -0.090074 -0.000782 -9.221709 -40.394265 7.084192 0.404975 -0.248275 0.009413 -62.850178 -58.191422 -38.946497 0.460135 -0.238231 0.283749 13.372897 -9.088340 11.334228 0.076425 -0.088071 0.114620 -9.960876 -38.595890 -69.348215 0.037038 -0.042861 0.009225 37.509842 -35.247468 -92.005681 0.050284 -0.021473 0.042193 25.426201 -39.447648 -66.232966 0.021094 -0.014427 0.015497 0.000002 0.000004 0.000000 -0.143675 0.284997 -0.021912 -23.653725 6.863224 -17.565216 -0.287460 -0.086234 0.000782 11.116900 -3.985988 -21.673427 -0.399594 -0.246766 0.002709 -54.251407 55.780495 31.839118 -0.467398 -0.241371 0.281226 12.185199 -14.924546 -29.710879 -0.108031 -0.094182 0.125164 6.840368 20.633588 20.028196 -0.024173 -0.047998 0.027741 34.295514 53.569785 72.723305 -0.029763 -0.024957 0.035315 -8.217603 43.420906 96.231471 -0.019419 -0.013743 0.006099 0.000002 0.000001 -0.000002 0.189035 -0.122014 -0.005415 -35.312078 2.316803 9.661718 0.151311 -1.007878 0.040987 65.589637 11.479234 -4.156672 0.114340 -0.988243 -0.048909 -11.812409 4.285128 -2.999121 0.103477 -0.279231 0.323867 -8.251658 -0.000036 -0.000014 0.051617 -0.003830 0.157067 0.000000 -0.000002 0.000001 -0.200944 -0.121034 -0.009074 -16.640144 -6.150340 -2.266447 -0.144784 -1.006899 0.044264 35.006738 -12.964786 0.378314 -0.115121 -0.980906 -0.055157 -14.669926 -9.515144 10.667895 -0.113671 -0.284172 0.327431 -2.379152 0.000045 0.000006 -0.056400 -0.006888 0.156987 0.000000 -0.000002 -0.000001 
-0.306486 2.122104 0.172599 0.830415 4.789401 -3.709905 0.000036 0.218743 -0.014868 9.234768 -4.182715 1.024543 0.000043 0.255198 -0.017346 3.712217 -0.616535 0.181744 0.000049 0.291657 -0.019824 3.702072 -0.575979 0.157230 0.000055 0.328114 -0.022302 -1.723131 0.486349 2.131534 0.000000 0.149230 0.067663 -21.684145 6.138668 -3.150912 -0.000000 0.424075 0.192282 -0.000002 -0.000000 0.000000 0.144467 0.283077 -0.022693 3.864321 -22.411937 10.007810 0.288825 -0.090075 -0.000782 -15.350022 -37.839422 8.435600 0.404975 -0.248275 0.009413 -62.713383 -58.160037 -38.830896 0.460135 -0.238232 0.283749 11.291915 -10.702316 12.443001 0.076425 -0.088071 0.114620 -9.960870 -38.595886 -69.348243 0.037038 -0.042861 0.009226 37.509866 -35.247458 -92.005619 0.050284 -0.021474 0.042193 25.426183 -39.447659 -66.232973 0.021095 -0.014427 0.015497 0.000002 0.000003 -0.000002 -0.143675 0.284997 -0.021912 -23.725656 15.350432 -14.052542 -0.287460 -0.086234 0.000782 -7.667478 -15.153642 -20.536314 -0.399593 -0.246766 0.002709 -100.965475 60.629206 71.984265 -0.467398 -0.241371 0.281226 8.428224 -12.404420 -22.397462 -0.108031 -0.094182 0.125164 6.840381 20.633599 20.028203 -0.024173 -0.047997 0.027741 34.295493 53.569758 72.723319 -0.029763 -0.024956 0.035315 -8.217576 43.420950 96.231471 -0.019419 -0.013744 0.006098 0.000001 0.000003 0.000002 0.189035 -0.122013 -0.005415 -48.930331 0.225095 13.911137 0.151311 -1.007878 0.040987 85.212115 11.157584 -6.571495 0.114340 -0.988243 -0.048909 -9.071145 1.433458 -2.692987 0.103476 -0.279231 0.323867 -4.711369 -0.000041 0.000002 0.051617 -0.003830 0.157067 -0.000000 0.000002 0.000001 -0.200944 -0.121034 -0.009074 -25.538502 -5.151441 -5.993508 -0.144784 -1.006899 0.044264 48.050821 -14.866197 1.906560 -0.115121 -0.980906 -0.055157 -19.559234 -4.799175 10.591533 -0.113671 -0.284172 0.327431 -2.449952 0.000037 -0.000007 -0.056400 -0.006888 0.156987 0.000002 -0.000004 0.000001 
